<svg height="519" viewBox="0 0 1583 519" width="1583" xmlns="http://www.w3.org/2000/svg"><g fill="none" fill-rule="evenodd" transform="translate(.690238 .486282)"><path d="m107.405577 483.466617c28.973988 4.059582 43.460982-4.012041 43.460982-24.214868 0-30.304242-27.10946-67.692151-84.7690188-71.752186-57.65955858-4.060035-68.18250612 79.915722-65.78777828 93.075179 2.39472783 13.159458 10.61395538 26.572922 39.41724728 17.654157 19.2021946-5.945844 41.7617171-10.866604 67.6785678-14.762282z" fill="#01310f"/><path d="m97.2244258 101.548254c13.8071192 0 26.9756882-17.7695167 26.9756882-33.2334897s-12.083233-24.8010461-25.8903521-24.8010461c-13.8071187 0-27.3387177 17.2914743-27.3387177 32.7554473s12.4462629 25.2790885 26.2533816 25.2790885z" fill="#fff"/><path d="m941.832857 330.417539 37.855262 59.015271c19.055978 69.943376 21.201831 112.970345 6.437557 129.080908h-721.512639c-38.005241-193.447467 24.390326-298.287392 187.186699-314.519775 162.796374-16.232383 301.462001 5.666827 415.996881 65.697632 32.337768 21.235177 57.016514 41.477166 74.03624 60.725964z" fill="#65ae74"/><path d="m381.809762 260.513718c32.308658 0 58.5-22.195186 58.5-70.5 0-48.304813-37.98942-72.396891-70.298078-72.396891s-55.619904 33.460816-55.619904 72.396891 35.109324 70.5 67.417982 70.5z" fill="#fff" opacity=".762091"/><path d="m584.901498 354.625721c-22.224308 6.22002-47.221511 6.22002-74.991609 0-27.770097-6.220021-41.196163-34.531403-40.278195-84.934146 21.404468-112.095547 42.867497-177.8157436 64.389085-197.1605889 32.282382-29.0172679 80.570635-104.6813497 175.879396-57.2999855 63.539174 31.5875761 100.541175 74.3696068 111.006004 128.3460924-6.995545 64.966771-34.159468 107.004932-81.491768 126.114482-47.332301 19.109549-98.836605 47.420931-154.512913 84.934146z" fill="#fff" opacity=".766439"/><path d="m1331.31642 518.513718h-261.43536c-58.71825-52.654934-73.397817-107.721263-44.03869-165.198989 29.35913-57.477726 118.99275-90.313493 268.90087-98.507301 64.32484 17.706373 93.60201 56.341508 87.83151 115.905405-5.7705 59.563896-22.85661 108.830858-51.25833 147.800885z" fill="#01310f"/><path d="m1513.80227 456.396741c34.79394 0 68.50749-6.201582 68.50749-54.596362 0-48.394781-40.20606-89.286661-75-89.286661s-63 27.31063-63 61 34.69857 82.883023 69.49251 82.883023z" fill="#d8d8d8"/></g></svg>