<svg enable-background="new 0 0 60 60" viewBox="0 0 60 60" xmlns="http://www.w3.org/2000/svg"><g fill="#fff"><path d="m59 52.9h-58.3v-46.9h58.3zm-56.8-1.5h55.3v-43.9h-55.3z"/><path d="m.7 12.3h52.3v1.5h-52.3z"/><path d="m5 9.3h2v1.5h-2z"/><path d="m9.1 9.3h2v1.5h-2z"/><path d="m13.2 9.3h2v1.5h-2z"/><path d="m53 30.3h-1.5v-11h-43.3v9.5h40.8v1.5h-42.3v-12.5h46.3z"/><path d="m19.4 40.2h-12.7v-6.6h12.7zm-11.2-1.5h9.7v-3.6h-9.7z"/><path d="m36.2 40.2h-12.7v-6.6h12.7zm-11.2-1.5h9.7v-3.6h-9.7z"/><path d="m53 40.2h-12.7v-6.6h12.7zm-11.2-1.5h9.7v-3.6h-9.7z"/><path d="m6.7 42.4h12.7v1.5h-12.7z"/><path d="m6.7 46.1h7.2v1.5h-7.2z"/><path d="m23.5 42.4h12.7v1.5h-12.7z"/><path d="m23.5 46.1h7.2v1.5h-7.2z"/><path d="m40.3 42.4h12.7v1.5h-12.7z"/><path d="m40.3 46.1h7.2v1.5h-7.2z"/></g></svg>